<svg width="478" height="393" fill="none" xmlns="http://www.w3.org/2000/svg"><rect width="350" height="346" rx="8" fill="#E8EAF6"/><mask id="a" style="mask-type:luminance" maskUnits="userSpaceOnUse" x="0" y="0" width="350" height="346"><rect width="350" height="346" rx="8" fill="#fff"/></mask><g mask="url(#a)"><path fill="#242A45" d="M-3.53.197h547v59h-547z"/><g fill="#fff"><circle opacity=".245" cx="38.47" cy="30.197" r="16"/><rect opacity=".75" x="69.47" y="20.197" width="120" height="6" rx="3"/><rect opacity=".25" x="69.47" y="34.197" width="64" height="6" rx="3"/></g></g><rect x="27" y="138" width="200" height="255" rx="8" fill="#fff"/><rect opacity=".5" x="95.683" y="173" width="101.317" height="6" rx="3" fill="#242A45"/><circle cx="66" cy="183" r="16" fill="#5267DF"/><rect opacity=".25" x="95.683" y="187" width="54.036" height="6" rx="3" fill="#242A45"/><circle cx="66" cy="239" r="16" fill="#5267DF"/><rect opacity=".5" x="95.683" y="229" width="101.317" height="6" rx="3" fill="#242A45"/><rect opacity=".25" x="95.683" y="243" width="54.036" height="6" rx="3" fill="#242A45"/><g><circle cx="66" cy="295" r="16" fill="#5267DF"/><rect opacity=".5" x="95.683" y="285" width="101.317" height="6" rx="3" fill="#242A45"/><rect opacity=".25" x="95.683" y="299" width="54.036" height="6" rx="3" fill="#242A45"/></g><g><circle cx="66" cy="351" r="16" fill="#5267DF"/><rect opacity=".5" x="95.683" y="341" width="101.317" height="6" rx="3" fill="#242A45"/><rect opacity=".25" x="95.683" y="355" width="54.036" height="6" rx="3" fill="#242A45"/></g><g><rect x="251" y="138" width="200" height="255" rx="8" fill="#fff"/><rect opacity=".5" x="319.683" y="173" width="101.317" height="6" rx="3" fill="#242A45"/><circle cx="290" cy="183" r="16" fill="#5267DF"/><rect opacity=".25" x="319.683" y="187" width="54.036" height="6" rx="3" fill="#242A45"/><circle cx="290" cy="239" r="16" fill="#FA5959"/><rect opacity=".5" x="319.683" y="229" width="101.317" height="6" rx="3" fill="#242A45"/><rect opacity=".25" x="319.683" y="243" width="54.036" height="6" rx="3" fill="#242A45"/><g><circle cx="290" cy="295" r="16" fill="#5267DF"/><rect opacity=".5" x="319.683" y="285" width="101.317" height="6" rx="3" fill="#242A45"/><rect opacity=".25" x="319.683" y="299" width="54.036" height="6" rx="3" fill="#242A45"/></g><g><circle cx="290" cy="351" r="16" fill="#5267DF"/><rect opacity=".5" x="319.683" y="341" width="101.317" height="6" rx="3" fill="#242A45"/><rect opacity=".25" x="319.683" y="355" width="54.036" height="6" rx="3" fill="#242A45"/></g></g><rect x="27" y="85" width="237" height="34" rx="8" fill="#fff"/><g stroke="#5267DF" stroke-width="20"><circle cx="372" cy="169" r="67" fill="#495DCF" fill-opacity=".2"/><path d="m419 217 49 49" stroke-linecap="round" stroke-linejoin="round"/></g></svg>